<svg width="156" height="25" viewBox="0 0 156 25" fill="none" xmlns="http://www.w3.org/2000/svg">
<path d="M12.5015 20H8.62545V12.236L7.90545 11.792V10.508L10.4855 9.8H12.5255V11.348L12.6695 11.168C12.7655 11.04 12.9055 10.888 13.0895 10.712C13.2815 10.536 13.4935 10.364 13.7255 10.196C13.9575 10.02 14.2335 9.872 14.5535 9.752C14.8815 9.624 15.2015 9.56 15.5135 9.56C16.6095 9.56 17.3815 9.86 17.8295 10.46C18.2855 11.06 18.5135 12.064 18.5135 13.472C18.5135 13.52 18.5135 13.592 18.5135 13.688C18.5055 13.784 18.5015 13.86 18.5015 13.916V20H14.5415V13.568C14.5655 12.816 14.2455 12.44 13.5815 12.44C13.5335 12.44 13.4855 12.444 13.4375 12.452C13.3975 12.46 13.3575 12.468 13.3175 12.476C13.2855 12.484 13.2455 12.5 13.1975 12.524C13.1575 12.54 13.1215 12.556 13.0895 12.572C13.0575 12.58 13.0215 12.6 12.9815 12.632C12.9415 12.656 12.9095 12.676 12.8855 12.692C12.8615 12.708 12.8255 12.736 12.7775 12.776C12.7375 12.808 12.7055 12.832 12.6815 12.848C12.6655 12.864 12.6335 12.892 12.5855 12.932C12.5455 12.964 12.5175 12.988 12.5015 13.004V20ZM22.8241 20.252C21.7441 20.252 20.9881 19.928 20.5561 19.28C20.1321 18.632 19.9201 17.536 19.9201 15.992V11.912H19.0921V10.244L20.5081 9.8L21.7321 7.004H23.8441V9.8H25.8121V11.912H23.8081V16.376C23.8081 17.016 23.9001 17.44 24.0841 17.648C24.2681 17.856 24.5521 17.96 24.9361 17.96C25.1041 17.96 25.2561 17.94 25.3921 17.9C25.5281 17.86 25.6401 17.804 25.7281 17.732V19.364C25.6081 19.484 25.4521 19.604 25.2601 19.724C25.0681 19.836 24.7481 19.952 24.3001 20.072C23.8601 20.192 23.3681 20.252 22.8241 20.252ZM32.2595 13.796C32.2595 12.78 32.2075 12.06 32.1035 11.636C31.9995 11.212 31.8075 11 31.5275 11C31.2875 11 31.0915 11.044 30.9395 11.132C30.7875 11.212 30.6755 11.344 30.6035 11.528C30.5315 11.704 30.4835 11.888 30.4595 12.08C30.4435 12.264 30.4355 12.5 30.4355 12.788V13.796H32.2595ZM31.2995 20.252C30.4035 20.252 29.6235 20.116 28.9595 19.844C28.3035 19.572 27.7835 19.192 27.3995 18.704C27.0235 18.216 26.7475 17.668 26.5715 17.06C26.3955 16.444 26.3075 15.76 26.3075 15.008C26.3075 13.216 26.7635 11.86 27.6755 10.94C28.5875 10.02 29.8635 9.56 31.5035 9.56C33.0795 9.56 34.2075 9.932 34.8875 10.676C35.5675 11.412 35.9075 12.6 35.9075 14.24V15.572H30.4235V15.8C30.4235 16.272 30.4715 16.66 30.5675 16.964C30.6715 17.268 30.8195 17.492 31.0115 17.636C31.2035 17.78 31.3995 17.876 31.5995 17.924C31.7995 17.972 32.0435 17.996 32.3315 17.996C32.6115 17.996 32.9115 17.96 33.2315 17.888C33.5595 17.816 33.8875 17.704 34.2155 17.552C34.5515 17.4 34.8315 17.22 35.0555 17.012L35.7635 18.224C35.4675 18.704 35.0315 19.108 34.4555 19.436C33.8875 19.756 33.3395 19.972 32.8115 20.084C32.2835 20.196 31.7795 20.252 31.2995 20.252ZM41.0835 20H37.2075V12.236L36.4875 11.792V10.436L39.0675 9.8H40.0395L40.3875 12.656C40.7155 10.696 41.7675 9.716 43.5435 9.716C43.7435 9.716 43.9515 9.752 44.1675 9.824L43.7595 14.096C43.5915 13.944 43.2235 13.868 42.6555 13.868C41.8395 13.868 41.3155 14.084 41.0835 14.516V20ZM53.1456 19.004L53.0376 19.136C52.9656 19.216 52.8376 19.32 52.6536 19.448C52.4776 19.568 52.2616 19.692 52.0056 19.82C51.7576 19.94 51.4216 20.04 50.9976 20.12C50.5816 20.208 50.1336 20.252 49.6536 20.252C48.0296 20.252 46.7856 19.776 45.9216 18.824C45.0656 17.872 44.6376 16.612 44.6376 15.044C44.6376 14.196 44.7696 13.424 45.0336 12.728C45.2976 12.032 45.6576 11.456 46.1136 11C46.5776 10.536 47.1176 10.18 47.7336 9.932C48.3576 9.676 49.0296 9.548 49.7496 9.548C51.1416 9.548 52.2216 9.88 52.9896 10.544C53.1576 10.712 53.2416 10.796 53.2416 10.796L53.0616 13.616L51.3576 13.628L50.6736 11.792C50.6096 11.776 50.5216 11.768 50.4096 11.768C49.6816 11.768 49.1776 12.02 48.8976 12.524C48.6256 13.02 48.4896 13.884 48.4896 15.116C48.4896 15.652 48.5336 16.112 48.6216 16.496C48.7096 16.872 48.8096 17.156 48.9216 17.348C49.0336 17.532 49.1816 17.676 49.3656 17.78C49.5576 17.884 49.7136 17.944 49.8336 17.96C49.9536 17.976 50.1016 17.984 50.2776 17.984C50.6776 17.984 51.0856 17.936 51.5016 17.84C51.9256 17.744 52.2736 17.588 52.5456 17.372L53.1456 19.004ZM58.154 20H54.266V6.428L53.546 5.996V4.88L57.398 4.28H58.178V11.348L58.322 11.168C58.418 11.04 58.558 10.888 58.742 10.712C58.934 10.536 59.146 10.364 59.378 10.196C59.61 10.02 59.886 9.872 60.206 9.752C60.534 9.624 60.854 9.56 61.166 9.56C62.262 9.56 63.034 9.86 63.482 10.46C63.938 11.06 64.166 12.064 64.166 13.472C64.166 13.52 64.166 13.592 64.166 13.688C64.158 13.784 64.154 13.86 64.154 13.916V20H60.194V13.568C60.218 12.816 59.898 12.44 59.234 12.44C59.17 12.44 59.106 12.444 59.042 12.452C58.986 12.46 58.926 12.48 58.862 12.512C58.798 12.544 58.746 12.568 58.706 12.584C58.674 12.6 58.622 12.632 58.55 12.68C58.486 12.728 58.442 12.76 58.418 12.776C58.402 12.792 58.354 12.832 58.274 12.896C58.202 12.96 58.162 12.996 58.154 13.004V20ZM70.8329 18.932L70.7129 19.064C70.6329 19.16 70.5089 19.272 70.3409 19.4C70.1809 19.528 69.9929 19.656 69.7769 19.784C69.5689 19.912 69.3129 20.02 69.0089 20.108C68.7049 20.204 68.3929 20.252 68.0729 20.252C65.9129 20.252 64.8329 19.184 64.8329 17.048C64.8329 16.632 64.9089 16.252 65.0609 15.908C65.2129 15.556 65.4089 15.26 65.6489 15.02C65.8889 14.78 66.1769 14.568 66.5129 14.384C66.8489 14.192 67.1849 14.044 67.5209 13.94C67.8649 13.828 68.2249 13.736 68.6009 13.664C68.9769 13.592 69.3129 13.544 69.6089 13.52C69.9049 13.496 70.1889 13.484 70.4609 13.484V13.268C70.4609 12.78 70.3289 12.436 70.0649 12.236C69.8089 12.036 69.3929 11.936 68.8169 11.936C68.3209 11.936 67.8049 11.996 67.2689 12.116C66.7329 12.228 66.3129 12.364 66.0089 12.524L65.2409 10.892C65.7849 10.54 66.4929 10.232 67.3649 9.968C68.2369 9.696 69.1249 9.56 70.0289 9.56C70.8289 9.56 71.4889 9.64 72.0089 9.8C72.5289 9.952 72.9489 10.216 73.2689 10.592C73.5969 10.96 73.8289 11.432 73.9649 12.008C74.1009 12.576 74.1689 13.3 74.1689 14.18V19.064L74.5049 20H71.2169L70.8329 18.932ZM69.8849 18.14C69.9889 18.14 70.0849 18.12 70.1729 18.08C70.2689 18.032 70.3409 17.988 70.3889 17.948C70.4369 17.9 70.4609 17.876 70.4609 17.876V14.996C69.9729 14.996 69.5849 15.132 69.2969 15.404C69.0089 15.668 68.8649 16.08 68.8649 16.64C68.8649 17.64 69.2049 18.14 69.8849 18.14ZM79.5796 20H75.7036V12.236L74.9836 11.792V10.508L77.5636 9.8H79.6036V11.348L79.7476 11.168C79.8436 11.04 79.9836 10.888 80.1676 10.712C80.3596 10.536 80.5716 10.364 80.8036 10.196C81.0356 10.02 81.3116 9.872 81.6316 9.752C81.9596 9.624 82.2796 9.56 82.5916 9.56C83.6876 9.56 84.4596 9.86 84.9076 10.46C85.3636 11.06 85.5916 12.064 85.5916 13.472C85.5916 13.52 85.5916 13.592 85.5916 13.688C85.5836 13.784 85.5796 13.86 85.5796 13.916V20H81.6196V13.568C81.6436 12.816 81.3236 12.44 80.6596 12.44C80.6116 12.44 80.5636 12.444 80.5156 12.452C80.4756 12.46 80.4356 12.468 80.3956 12.476C80.3636 12.484 80.3236 12.5 80.2756 12.524C80.2356 12.54 80.1996 12.556 80.1676 12.572C80.1356 12.58 80.0996 12.6 80.0596 12.632C80.0196 12.656 79.9876 12.676 79.9636 12.692C79.9396 12.708 79.9036 12.736 79.8556 12.776C79.8156 12.808 79.7836 12.832 79.7596 12.848C79.7436 12.864 79.7116 12.892 79.6636 12.932C79.6236 12.964 79.5956 12.988 79.5796 13.004V20ZM91.7142 24.236C91.0902 24.236 90.3862 24.092 89.6022 23.804C88.8182 23.524 88.3102 23.256 88.0782 23L88.8342 21.356C89.0342 21.508 89.3582 21.648 89.8062 21.776C90.2542 21.904 90.6382 21.968 90.9582 21.968C91.2782 21.968 91.5542 21.924 91.7862 21.836C92.0262 21.756 92.2102 21.652 92.3382 21.524C92.4662 21.404 92.5702 21.252 92.6502 21.068C92.7302 20.892 92.7782 20.732 92.7942 20.588C92.8182 20.444 92.8342 20.284 92.8422 20.108V19.088C92.1622 19.792 91.3342 20.144 90.3582 20.144C89.0382 20.144 88.0702 19.692 87.4542 18.788C86.8382 17.884 86.5302 16.628 86.5302 15.02C86.5302 14.268 86.6142 13.576 86.7822 12.944C86.9502 12.304 87.1942 11.744 87.5142 11.264C87.8422 10.776 88.2662 10.396 88.7862 10.124C89.3062 9.844 89.8942 9.704 90.5502 9.704C91.5422 9.704 92.4022 9.924 93.1302 10.364L93.3342 9.8H95.1702L97.4262 9.908V11.036L96.7062 11.54V19.556C96.7062 22.676 95.0422 24.236 91.7142 24.236ZM92.0982 17.96C92.3382 17.96 92.5862 17.892 92.8422 17.756V11.432C92.6502 11.392 92.4742 11.372 92.3142 11.372C91.2502 11.38 90.7142 12.2 90.7062 13.832V15.692C90.7062 16.204 90.7742 16.644 90.9102 17.012C91.1502 17.644 91.5462 17.96 92.0982 17.96ZM103.767 13.796C103.767 12.78 103.715 12.06 103.611 11.636C103.507 11.212 103.315 11 103.035 11C102.795 11 102.599 11.044 102.447 11.132C102.295 11.212 102.183 11.344 102.111 11.528C102.039 11.704 101.991 11.888 101.967 12.08C101.951 12.264 101.943 12.5 101.943 12.788V13.796H103.767ZM102.807 20.252C101.911 20.252 101.131 20.116 100.467 19.844C99.8114 19.572 99.2914 19.192 98.9074 18.704C98.5314 18.216 98.2554 17.668 98.0794 17.06C97.9034 16.444 97.8154 15.76 97.8154 15.008C97.8154 13.216 98.2714 11.86 99.1834 10.94C100.095 10.02 101.371 9.56 103.011 9.56C104.587 9.56 105.715 9.932 106.395 10.676C107.075 11.412 107.415 12.6 107.415 14.24V15.572H101.931V15.8C101.931 16.272 101.979 16.66 102.075 16.964C102.179 17.268 102.327 17.492 102.519 17.636C102.711 17.78 102.907 17.876 103.107 17.924C103.307 17.972 103.551 17.996 103.839 17.996C104.119 17.996 104.419 17.96 104.739 17.888C105.067 17.816 105.395 17.704 105.723 17.552C106.059 17.4 106.339 17.22 106.563 17.012L107.271 18.224C106.975 18.704 106.539 19.108 105.963 19.436C105.395 19.756 104.847 19.972 104.319 20.084C103.791 20.196 103.287 20.252 102.807 20.252Z" fill="black"/>
<path d="M112.399 20H108.583V7.064L107.995 5.936H112.411L114.619 10.496L116.731 15.044L116.143 9.704V5.936H119.971V20H116.311L113.455 14.444L111.691 10.964L112.399 15.572V20ZM127.111 13.796C127.111 12.78 127.059 12.06 126.955 11.636C126.851 11.212 126.659 11 126.379 11C126.139 11 125.943 11.044 125.791 11.132C125.639 11.212 125.527 11.344 125.455 11.528C125.383 11.704 125.335 11.888 125.311 12.08C125.295 12.264 125.287 12.5 125.287 12.788V13.796H127.111ZM126.151 20.252C125.255 20.252 124.475 20.116 123.811 19.844C123.155 19.572 122.635 19.192 122.251 18.704C121.875 18.216 121.599 17.668 121.423 17.06C121.247 16.444 121.159 15.76 121.159 15.008C121.159 13.216 121.615 11.86 122.527 10.94C123.439 10.02 124.715 9.56 126.355 9.56C127.931 9.56 129.059 9.932 129.739 10.676C130.419 11.412 130.759 12.6 130.759 14.24V15.572H125.275V15.8C125.275 16.272 125.323 16.66 125.419 16.964C125.523 17.268 125.671 17.492 125.863 17.636C126.055 17.78 126.251 17.876 126.451 17.924C126.651 17.972 126.895 17.996 127.183 17.996C127.463 17.996 127.763 17.96 128.083 17.888C128.411 17.816 128.739 17.704 129.067 17.552C129.403 17.4 129.683 17.22 129.907 17.012L130.615 18.224C130.319 18.704 129.883 19.108 129.307 19.436C128.739 19.756 128.191 19.972 127.663 20.084C127.135 20.196 126.631 20.252 126.151 20.252ZM137.591 20H133.931L130.871 9.8H135.203L136.655 16.304L137.747 11.84L137.183 9.8H141.335L142.559 16.304L144.179 9.8H146.747L143.675 20H140.027L138.851 15.8L137.591 20ZM150.578 20.252C149.826 20.252 149.066 20.128 148.298 19.88C147.53 19.624 147.038 19.376 146.822 19.136L147.134 17.204C147.406 17.468 147.858 17.696 148.49 17.888C149.13 18.08 149.782 18.176 150.446 18.176C150.926 18.176 151.254 18.116 151.43 17.996C151.614 17.876 151.706 17.708 151.706 17.492C151.706 17.284 151.546 17.1 151.226 16.94C150.906 16.772 150.386 16.58 149.666 16.364C147.802 15.804 146.87 14.644 146.87 12.884C146.87 12.164 147.078 11.548 147.494 11.036C147.91 10.516 148.442 10.14 149.09 9.908C149.738 9.676 150.462 9.56 151.262 9.56C152.63 9.56 153.638 9.812 154.286 10.316C154.43 10.452 154.502 10.52 154.502 10.52L153.974 12.236C153.446 11.716 152.718 11.456 151.79 11.456C151.03 11.456 150.65 11.68 150.65 12.128C150.65 12.256 150.678 12.364 150.734 12.452C150.79 12.532 150.882 12.604 151.01 12.668C151.146 12.724 151.278 12.772 151.406 12.812C151.534 12.844 151.714 12.892 151.946 12.956C152.178 13.012 152.378 13.064 152.546 13.112C153.482 13.424 154.162 13.864 154.586 14.432C155.01 15 155.222 15.708 155.222 16.556C155.222 19.02 153.674 20.252 150.578 20.252Z" fill="#3366CC"/>
<path d="M4 9L4 20" stroke="black" stroke-width="4"/>
<circle cx="4" cy="6" r="4" fill="white"/>
<circle cx="4" cy="4" r="4" fill="#3366CC"/>
</svg>
