<svg xmlns="http://www.w3.org/2000/svg" viewBox="0 0 800 450">
  <!-- 배경 -->
  <rect width="800" height="450" fill="#f5f5f5"/>
  
  <!-- 신문 아이콘 -->
  <g transform="translate(395, 170)">
    <!-- 신문 베이스 -->
    <rect x="-60" y="-60" width="120" height="140" fill="#ffffff" stroke="#333333" stroke-width="5"/>
    
    <!-- 신문 제목 줄 -->
    <rect x="-50" y="-50" width="100" height="10" fill="#333333"/>
    <rect x="-50" y="-35" width="70" height="8" fill="#333333"/>
    
    <!-- 신문 내용 줄 -->
    <rect x="-50" y="-15" width="100" height="5" fill="#888888"/>
    <rect x="-50" y="-5" width="100" height="5" fill="#888888"/>
    <rect x="-50" y="5" width="100" height="5" fill="#888888"/>
    <rect x="-50" y="15" width="100" height="5" fill="#888888"/>
    <rect x="-50" y="25" width="70" height="5" fill="#888888"/>
    
    <!-- 이미지 섹션 -->
    <rect x="-50" y="40" width="45" height="30" fill="#cccccc" stroke="#888888" stroke-width="1"/>
    <line x1="-40" y1="45" x2="-15" y2="65" stroke="#888888" stroke-width="1"/>
    <line x1="-15" y1="45" x2="-40" y2="65" stroke="#888888" stroke-width="1"/>
    
    <!-- 추가 텍스트 줄 -->
    <rect x="5" y="40" width="45" height="5" fill="#888888"/>
    <rect x="5" y="50" width="45" height="5" fill="#888888"/>
    <rect x="5" y="60" width="30" height="5" fill="#888888"/>
  </g>
  
  <!-- 텍스트 -->
  <text x="400" y="300" font-family="Arial, sans-serif" font-size="24" text-anchor="middle" fill="#333333">이미지를 찾을 수 없습니다</text>
  <text x="400" y="330" font-family="Arial, sans-serif" font-size="18" text-anchor="middle" fill="#666666">기사 내용을 확인해 주세요</text>
</svg>